<svg width="100%" height="76" viewBox="0 0 100% 76" fill="none" xmlns="http://www.w3.org/2000/svg">
<path d="M0 25.997C0 19.3737 0 16.062 1.28166 13.5162C2.40929 11.2764 4.21028 9.44608 6.43163 8.28244C8.95641 6.95985 12.2676 6.90638 18.89 6.79946L420.49 0.315017C427.308 0.204925 430.718 0.149879 433.327 1.44236C435.621 2.57901 437.492 4.41983 438.666 6.69571C440 9.28362 440 12.6933 440 19.5125V50.003C440 56.6263 440 59.938 438.718 62.4838C437.591 64.7236 435.79 66.5539 433.568 67.7176C431.044 69.0402 427.732 69.0936 421.11 69.2006L19.5099 75.685C12.6916 75.7951 9.28241 75.8501 6.6733 74.5576C4.37876 73.421 2.50798 71.5802 1.33443 69.3043C0 66.7164 0 63.3067 0 56.4875V25.997Z" fill="url(#paint0_linear_1_4)"/>
<defs>
<linearGradient id="paint0_linear_1_4" x1="81.6594" y1="-5.42857" x2="399.813" y2="309.54" gradientUnits="userSpaceOnUse">
<stop stop-color="#F04941"/>
<stop offset="1" stop-color="#F86F1C"/>
</linearGradient>
</defs>
</svg>
