<svg width="104" height="65" viewBox="0 0 104 65" fill="none" xmlns="http://www.w3.org/2000/svg">
<path fill-rule="evenodd" clip-rule="evenodd" d="M99.7794 3.90728C99.2977 3.82698 98.8292 4.08735 98.7328 4.48883C97.9842 7.60858 97.4112 10.7055 96.8495 13.7419C96.4468 15.9189 96.0498 18.0647 95.598 20.1655C94.5041 25.2514 93.0619 30.2401 90.3817 35.2957C85.5841 44.3453 78.4793 52.5301 68.4884 57.9511C63.335 60.7473 56.743 62.7625 50.2441 63.1053C43.7523 63.4477 37.4248 62.1214 32.6646 58.3159C30.2501 56.3856 28.2745 53.9325 26.7985 51.1953C30.0909 51.8869 33.5842 52.1811 37.2868 51.978C46.0576 51.4971 50.6154 45.5308 51.3471 39.1653C52.0759 32.8248 49.0736 25.7161 42.275 22.6428C38.6182 20.9897 34.9857 20.8996 31.8351 22.0369C28.7085 23.1654 26.1498 25.467 24.5015 28.4628C21.8488 33.2842 21.3198 39.1951 22.5642 44.7835C22.8723 46.1672 23.2902 47.536 23.8143 48.8682C15.1526 46.185 7.96975 40.6003 2.06455 34.2588C1.76336 33.9354 1.20461 33.8767 0.816537 34.1277C0.428467 34.3787 0.358037 34.8444 0.659228 35.1679C6.95379 41.9275 14.8546 48.0321 24.5979 50.667C26.1997 54.0088 28.4988 57.04 31.4332 59.3859C36.6459 63.5532 43.513 64.9459 50.3564 64.585C57.1928 64.2244 64.0767 62.114 69.4589 59.1937C79.8166 53.5737 87.1147 45.1266 92.0089 35.8949C94.7699 30.6869 96.243 25.569 97.349 20.4271C97.82 18.2371 98.2198 16.0714 98.6216 13.8951C99.1733 10.9071 99.7287 7.89887 100.477 4.7796C100.574 4.37812 100.261 3.98757 99.7794 3.90728ZM25.9468 49.4616C25.2387 47.8714 24.6906 46.208 24.3132 44.513C23.121 39.1587 23.6492 33.5689 26.1185 29.0808C27.6271 26.3389 29.9045 24.3494 32.542 23.3974C35.1554 22.4541 38.215 22.4941 41.4269 23.9461C47.3971 26.6449 50.2618 33.0596 49.5763 39.0239C48.8936 44.9631 44.7557 50.0826 37.17 50.4986C33.189 50.7169 29.452 50.3276 25.9468 49.4616Z" fill="black"/>
<path fill-rule="evenodd" clip-rule="evenodd" d="M102.294 8.51812C102.777 8.44324 103.096 8.05622 103.006 7.6537C102.997 7.61168 102.983 7.55144 102.967 7.47529C102.839 6.89317 102.507 5.38105 102.123 3.9638C101.907 3.16628 101.668 2.37378 101.431 1.78654C101.316 1.50052 101.185 1.21968 101.036 1.00576C100.965 0.904978 100.851 0.760285 100.68 0.644172C100.495 0.518974 100.114 0.352408 99.6593 0.499719C99.0126 0.709329 98.5533 1.17141 98.2282 1.58007C97.8892 2.00613 97.5946 2.50882 97.3417 2.94351L97.321 2.97898C97.0622 3.42386 96.8522 3.7848 96.6474 4.04337C96.566 4.14614 96.5045 4.20745 96.4645 4.24113C96.0392 4.29667 95.7138 4.60342 95.7138 4.97349C95.7138 5.38292 96.112 5.71482 96.6033 5.71482C97.0205 5.71482 97.3499 5.55913 97.5785 5.39964C97.8033 5.24287 97.9851 5.04565 98.132 4.86018C98.4041 4.51663 98.6614 4.07382 98.8951 3.67163C98.9109 3.64438 98.9267 3.61732 98.9423 3.59049C99.2038 3.14112 99.4486 2.72891 99.7108 2.39945C99.7314 2.37351 99.7516 2.34875 99.7715 2.32514C99.9703 2.83379 100.184 3.5368 100.388 4.29058C100.763 5.67367 101.087 7.15059 101.216 7.7391C101.233 7.81763 101.247 7.88034 101.257 7.92489C101.347 8.32741 101.811 8.59301 102.294 8.51812ZM99.483 1.73154C99.483 1.73162 99.4842 1.7331 99.4866 1.73574C99.4842 1.73278 99.483 1.73146 99.483 1.73154Z" fill="black"/>
</svg>
