<svg width="2139" height="2991" viewBox="0 0 2139 2991" fill="none" xmlns="http://www.w3.org/2000/svg">
<path d="M114.5 726.843C233.46 685.774 441.518 574.345 538.481 402.343M1112.5 91.8426C938.668 13.3426 591.001 -73.0573 591.001 209.343C591.001 280.235 570.981 344.691 538.481 402.343M2135.98 825.809C2049.03 842.489 1917.26 853.158 1792.48 834.343M1467.48 613.809C1512.78 751.198 1647.94 812.549 1792.48 834.343M167.983 1668.84C226.169 1578.49 341.502 1446.61 494.983 1351.65M1520.48 1080.84C1515.82 1168.68 1406.28 1324.54 1005.48 1245.34C812.596 1207.23 637.372 1263.55 494.983 1351.65M538.481 402.343C488.321 298.843 323.5 91.8426 65.4998 91.8426M494.983 1351.65C515.513 1405.24 544.66 1421.67 621.985 1478.84M1005.48 1529.84C873.531 1553.91 697.204 1534.46 621.985 1478.84M1792.48 834.343C1830.15 749.831 1905.48 566.709 1905.48 510.309M621.985 1478.84C470.203 1563.5 291.795 1686.3 172.39 1801.34M12 2255.34C34.7001 2284.28 69.8192 2398.64 114.5 2416.34C215.333 2533.62 248.7 2578.34 159.5 2706.34C48 2866.34 -55.0007 3116.34 229.001 2876.84C513.003 2637.34 1698 2687.34 2034.5 2771.84M1874.98 1397.84C1729.14 1550.18 1404.97 1844.14 1274.98 1801.34" stroke="#151313" stroke-width="29"/>
</svg>
