<svg width="24" height="22" viewBox="0 0 24 22" fill="none" xmlns="http://www.w3.org/2000/svg">
<path d="M11.492 0.32691C11.6277 -0.0907447 12.2186 -0.0907446 12.3543 0.32691L14.6711 7.4575C14.7318 7.64429 14.9059 7.77075 15.1023 7.77075H22.5998C23.039 7.77075 23.2216 8.3327 22.8663 8.59082L16.8006 12.9978C16.6417 13.1132 16.5753 13.3178 16.636 13.5046L18.9528 20.6352C19.0885 21.0529 18.6105 21.4002 18.2552 21.142L12.1896 16.7351C12.0307 16.6196 11.8155 16.6196 11.6567 16.7351L5.59102 21.142C5.23574 21.4002 4.75772 21.0529 4.89342 20.6352L7.21029 13.5046C7.27098 13.3178 7.2045 13.1132 7.04561 12.9978L0.979963 8.59082C0.624685 8.3327 0.807274 7.77075 1.24642 7.77075H8.74397C8.94037 7.77075 9.11442 7.64429 9.17511 7.4575L11.492 0.32691Z" fill="#FFD260"/>
<path d="M11.492 0.32691C11.6277 -0.0907447 12.2186 -0.0907446 12.3543 0.32691L14.6711 7.4575C14.7318 7.64429 14.9059 7.77075 15.1023 7.77075H22.5998C23.039 7.77075 23.2216 8.3327 22.8663 8.59082L16.8006 12.9978C16.6417 13.1132 16.5753 13.3178 16.636 13.5046L18.9528 20.6352C19.0885 21.0529 18.6105 21.4002 18.2552 21.142L12.1896 16.7351C12.0307 16.6196 11.8155 16.6196 11.6567 16.7351L5.59102 21.142C5.23574 21.4002 4.75772 21.0529 4.89342 20.6352L7.21029 13.5046C7.27098 13.3178 7.2045 13.1132 7.04561 12.9978L0.979963 8.59082C0.624685 8.3327 0.807274 7.77075 1.24642 7.77075H8.74397C8.94037 7.77075 9.11442 7.64429 9.17511 7.4575L11.492 0.32691Z" fill="url(#paint0_linear_8_500)"/>
<defs>
<linearGradient id="paint0_linear_8_500" x1="-0.77002" y1="-1" x2="25.0409" y2="-0.560605" gradientUnits="userSpaceOnUse">
<stop stop-color="#F04941"/>
<stop offset="1" stop-color="#F55C30"/>
</linearGradient>
</defs>
</svg>
